<mxfile host="app.diagrams.net" modified="2020-11-15T07:49:54.665Z" agent="5.0 (Windows NT 10.0; Win64; x64) AppleWebKit/537.36 (KHTML, like Gecko) Chrome/86.0.4240.198 Safari/537.36" etag="qPp670zI8ei9qwidtF9n" version="13.9.7" type="github">
  <diagram id="C5RBs43oDa-KdzZeNtuy" name="Page-1">
    <mxGraphModel dx="679" dy="2853" grid="1" gridSize="10" guides="1" tooltips="1" connect="1" arrows="1" fold="1" page="1" pageScale="1" pageWidth="827" pageHeight="1169" math="0" shadow="0">
      <root>
        <mxCell id="WIyWlLk6GJQsqaUBKTNV-0" />
        <mxCell id="WIyWlLk6GJQsqaUBKTNV-1" parent="WIyWlLk6GJQsqaUBKTNV-0" />
        <mxCell id="WIyWlLk6GJQsqaUBKTNV-3" value="Transaction Generator" style="rounded=1;whiteSpace=wrap;html=1;fontSize=12;glass=0;strokeWidth=1;shadow=0;" parent="WIyWlLk6GJQsqaUBKTNV-1" vertex="1">
          <mxGeometry x="40" y="-2120" width="120" height="40" as="geometry" />
        </mxCell>
        <mxCell id="WIyWlLk6GJQsqaUBKTNV-11" value="Data Manager" style="rounded=1;whiteSpace=wrap;html=1;fontSize=12;glass=0;strokeWidth=1;shadow=0;" parent="WIyWlLk6GJQsqaUBKTNV-1" vertex="1">
          <mxGeometry x="40" y="-1960" width="120" height="40" as="geometry" />
        </mxCell>
        <mxCell id="8CRR03daxMtFw2pIoDC--0" value="User" style="shape=umlActor;verticalLabelPosition=top;verticalAlign=bottom;html=1;outlineConnect=0;labelPosition=center;align=center;" parent="WIyWlLk6GJQsqaUBKTNV-1" vertex="1">
          <mxGeometry x="85" y="-2280" width="30" height="60" as="geometry" />
        </mxCell>
        <mxCell id="8CRR03daxMtFw2pIoDC--13" value="n" style="endArrow=classic;html=1;fontSize=14;entryX=0.25;entryY=0;entryDx=0;entryDy=0;fontStyle=1;labelBorderColor=none;" parent="WIyWlLk6GJQsqaUBKTNV-1" source="8CRR03daxMtFw2pIoDC--0" target="WIyWlLk6GJQsqaUBKTNV-3" edge="1">
          <mxGeometry relative="1" as="geometry">
            <mxPoint x="240" y="-2150" as="sourcePoint" />
            <mxPoint x="340" y="-2150" as="targetPoint" />
          </mxGeometry>
        </mxCell>
        <mxCell id="8CRR03daxMtFw2pIoDC--15" value="" style="endArrow=classic;html=1;fontSize=14;entryX=0.75;entryY=0;entryDx=0;entryDy=0;" parent="WIyWlLk6GJQsqaUBKTNV-1" source="8CRR03daxMtFw2pIoDC--0" target="WIyWlLk6GJQsqaUBKTNV-3" edge="1">
          <mxGeometry relative="1" as="geometry">
            <mxPoint x="190" y="-2220" as="sourcePoint" />
            <mxPoint x="80" y="-2110" as="targetPoint" />
          </mxGeometry>
        </mxCell>
        <mxCell id="8CRR03daxMtFw2pIoDC--16" value="d" style="edgeLabel;resizable=0;html=1;align=center;verticalAlign=middle;fontStyle=1;fontSize=14;" parent="8CRR03daxMtFw2pIoDC--15" connectable="0" vertex="1">
          <mxGeometry relative="1" as="geometry" />
        </mxCell>
        <mxCell id="8CRR03daxMtFw2pIoDC--18" value="Scheduler" style="rounded=1;whiteSpace=wrap;html=1;fontSize=12;glass=0;strokeWidth=1;shadow=0;" parent="WIyWlLk6GJQsqaUBKTNV-1" vertex="1">
          <mxGeometry x="40" y="-1960" width="120" height="40" as="geometry" />
        </mxCell>
        <mxCell id="8CRR03daxMtFw2pIoDC--19" value="&amp;nbsp; n = Number of Transactions&lt;br&gt;&amp;nbsp; d = Number of Data Items" style="text;html=1;align=left;verticalAlign=middle;whiteSpace=wrap;rounded=1;fontSize=14;labelBorderColor=none;spacingTop=2;spacingLeft=0;spacingBottom=0;spacingRight=0;spacing=2;perimeterSpacing=0;strokeWidth=1;labelPadding=-1;fillColor=#f5f5f5;strokeColor=#666666;fontColor=#333333;" parent="WIyWlLk6GJQsqaUBKTNV-1" vertex="1">
          <mxGeometry x="150" y="-2210" width="190" height="40" as="geometry" />
        </mxCell>
        <mxCell id="8CRR03daxMtFw2pIoDC--24" value="Data Manager (DM)" style="rounded=1;whiteSpace=wrap;html=1;fontSize=12;glass=0;strokeWidth=1;shadow=0;" parent="WIyWlLk6GJQsqaUBKTNV-1" vertex="1">
          <mxGeometry x="40" y="-1880" width="120" height="40" as="geometry" />
        </mxCell>
        <mxCell id="8CRR03daxMtFw2pIoDC--26" value="" style="endArrow=classic;startArrow=classic;html=1;fontSize=14;entryX=0.5;entryY=1;entryDx=0;entryDy=0;exitX=0.5;exitY=0;exitDx=0;exitDy=0;" parent="WIyWlLk6GJQsqaUBKTNV-1" source="8CRR03daxMtFw2pIoDC--18" target="8CRR03daxMtFw2pIoDC--36" edge="1">
          <mxGeometry width="50" height="50" relative="1" as="geometry">
            <mxPoint x="270" y="-1950" as="sourcePoint" />
            <mxPoint x="320" y="-2000" as="targetPoint" />
          </mxGeometry>
        </mxCell>
        <mxCell id="8CRR03daxMtFw2pIoDC--27" value="" style="endArrow=classic;startArrow=classic;html=1;fontSize=14;entryX=0.5;entryY=1;entryDx=0;entryDy=0;exitX=0.5;exitY=0;exitDx=0;exitDy=0;" parent="WIyWlLk6GJQsqaUBKTNV-1" source="8CRR03daxMtFw2pIoDC--24" target="8CRR03daxMtFw2pIoDC--18" edge="1">
          <mxGeometry width="50" height="50" relative="1" as="geometry">
            <mxPoint x="270" y="-1960" as="sourcePoint" />
            <mxPoint x="320" y="-2010" as="targetPoint" />
          </mxGeometry>
        </mxCell>
        <mxCell id="8CRR03daxMtFw2pIoDC--28" value="Generates &lt;i style=&quot;font-size: 12px&quot;&gt;&lt;b style=&quot;font-size: 12px&quot;&gt;n&lt;/b&gt;&lt;/i&gt; Transactions using up to &lt;i style=&quot;font-size: 12px&quot;&gt;&lt;b style=&quot;font-size: 12px&quot;&gt;d&lt;/b&gt;&lt;/i&gt; data items in each transaction. Each transaction is composed of multiple read (r) and write (w) operations using a random data item" style="text;html=1;align=left;verticalAlign=middle;whiteSpace=wrap;rounded=1;fontSize=12;labelBorderColor=none;spacingTop=2;spacingLeft=0;spacingBottom=0;spacingRight=0;spacing=2;perimeterSpacing=0;strokeWidth=1;labelPadding=-1;fillColor=#f5f5f5;strokeColor=#666666;fontColor=#333333;dashed=1;dashPattern=1 1;" parent="WIyWlLk6GJQsqaUBKTNV-1" vertex="1">
          <mxGeometry x="175" y="-2120" width="455" height="50" as="geometry" />
        </mxCell>
        <mxCell id="8CRR03daxMtFw2pIoDC--36" value="Transaction &lt;br&gt;Manager (TM)" style="rounded=1;whiteSpace=wrap;html=1;fontSize=12;glass=0;strokeWidth=1;shadow=0;" parent="WIyWlLk6GJQsqaUBKTNV-1" vertex="1">
          <mxGeometry x="40" y="-2040" width="120" height="40" as="geometry" />
        </mxCell>
        <mxCell id="8CRR03daxMtFw2pIoDC--38" value="" style="endArrow=classic;html=1;fontSize=14;exitX=0.5;exitY=1;exitDx=0;exitDy=0;entryX=0.5;entryY=0;entryDx=0;entryDy=0;" parent="WIyWlLk6GJQsqaUBKTNV-1" source="WIyWlLk6GJQsqaUBKTNV-3" target="8CRR03daxMtFw2pIoDC--36" edge="1">
          <mxGeometry width="50" height="50" relative="1" as="geometry">
            <mxPoint x="270" y="-1950" as="sourcePoint" />
            <mxPoint x="320" y="-2000" as="targetPoint" />
          </mxGeometry>
        </mxCell>
        <mxCell id="8CRR03daxMtFw2pIoDC--39" value="Sends individual transaction operations (r or w) from a random order from the transactions while preserving the individual transaction ordering." style="text;html=1;align=left;verticalAlign=middle;whiteSpace=wrap;rounded=1;fontSize=12;labelBorderColor=none;spacingTop=2;spacingLeft=0;spacingBottom=0;spacingRight=0;spacing=2;perimeterSpacing=0;strokeWidth=1;labelPadding=-1;fillColor=#f5f5f5;strokeColor=#666666;fontColor=#333333;dashed=1;dashPattern=1 1;" parent="WIyWlLk6GJQsqaUBKTNV-1" vertex="1">
          <mxGeometry x="174" y="-2040" width="456" height="40" as="geometry" />
        </mxCell>
        <mxCell id="8CRR03daxMtFw2pIoDC--40" value="The Scheduler controls the concurrent execution of the incoming transaction operations. It will take one of three actions (1) Execute it (pass operation to the DM), (2) Reject (informs the TM it hs been rejected which results in an abort) or (3) Delay execution until the conflict is resolved" style="text;html=1;align=left;verticalAlign=middle;whiteSpace=wrap;rounded=1;fontSize=10;labelBorderColor=none;spacingTop=2;spacingLeft=0;spacingBottom=0;spacingRight=0;spacing=2;perimeterSpacing=0;strokeWidth=1;labelPadding=-1;fillColor=#f5f5f5;strokeColor=#666666;fontColor=#333333;dashed=1;dashPattern=1 1;" parent="WIyWlLk6GJQsqaUBKTNV-1" vertex="1">
          <mxGeometry x="175" y="-1960" width="456" height="40" as="geometry" />
        </mxCell>
        <mxCell id="8CRR03daxMtFw2pIoDC--41" value="The Data Manager (DM) is not included in this design. This module will accept and acknowledge the operations. If the operation is a read (r), it will send a number to represent the data associated with the read operation." style="text;html=1;align=left;verticalAlign=middle;whiteSpace=wrap;rounded=1;fontSize=10;labelBorderColor=none;spacingTop=2;spacingLeft=0;spacingBottom=0;spacingRight=0;spacing=2;perimeterSpacing=0;strokeWidth=1;labelPadding=-1;fillColor=#f5f5f5;strokeColor=#666666;fontColor=#333333;dashed=1;dashPattern=1 1;" parent="WIyWlLk6GJQsqaUBKTNV-1" vertex="1">
          <mxGeometry x="175" y="-1880" width="456" height="40" as="geometry" />
        </mxCell>
      </root>
    </mxGraphModel>
  </diagram>
</mxfile>
